<svg width="43" height="59" viewBox="0 0 43 59" fill="none" xmlns="http://www.w3.org/2000/svg">
<path d="M0.432209 46.6754C0.155478 46.9521 7.51019e-06 47.3275 0 47.7188C-7.51019e-06 48.1102 0.155448 48.4855 0.432169 48.7622C0.70889 49.0389 1.08421 49.1944 1.47556 49.1944C1.86691 49.1944 2.24223 49.039 2.51896 48.7622C2.51896 48.7622 2.51896 48.7622 2.51896 48.7622C2.89401 48.3253 2.80281 48.3339 2.86228 48.2382C2.88432 48.1838 2.89993 48.1381 2.91041 48.1063C2.93098 48.0434 2.94377 47.9977 2.95553 47.9547C2.97746 47.8737 2.99345 47.8066 3.0085 47.7416C3.0379 47.6137 3.0622 47.4966 3.0851 47.3827C3.1316 47.1504 3.1715 46.9334 3.211 46.7122C3.28926 46.2725 3.36122 45.8375 3.4308 45.4042C3.57002 44.5352 3.69892 43.6744 3.82442 42.8094C3.82736 42.7891 3.83028 42.7689 3.83317 42.7487C3.99679 41.5706 4.16461 40.4933 4.3926 39.3961C4.66939 38.0431 4.99596 36.698 5.28187 35.3275C5.29099 35.2839 5.30013 35.2399 5.30927 35.1956C6.5073 29.4921 7.8563 23.7722 9.416 18.1797C9.44431 18.0794 9.47257 17.9797 9.50077 17.8807C10.528 14.2843 11.6907 10.7276 13.1215 7.32098C13.1768 7.18943 13.2295 7.06522 13.2827 6.9429C13.3452 6.79919 13.4096 6.65784 13.4652 6.54817C13.4926 6.49404 13.519 6.44668 13.53 6.43024C13.5251 6.42355 13.5891 6.39678 13.353 6.63294C13.2862 6.69085 13.1744 6.79409 12.9325 6.90088C12.7004 7.0142 12.1692 7.10581 11.7317 6.93353C11.2853 6.76078 11.1203 6.54218 11.0151 6.41892C10.9206 6.29872 10.8718 6.20161 10.8496 6.15667C10.759 5.95316 10.7871 5.98799 10.784 6.00308C10.7924 6.05661 10.8086 6.20149 10.8182 6.33856C10.8594 6.92109 10.8697 7.61765 10.8907 8.28517C10.8919 8.32244 10.893 8.36014 10.8941 8.39827C11.0245 13.6454 11.0314 18.9603 11.106 24.2693C11.1062 24.2848 11.1064 24.3002 11.1067 24.3156C11.2459 26.7219 10.8834 28.9272 12.1952 31.9545C12.2697 32.1001 12.3608 32.2396 12.462 32.3647C13.4405 33.4084 14.175 33.2819 14.6434 33.3652C15.143 33.397 15.5339 33.3697 15.9155 33.3383C16.6682 33.2704 17.3444 33.1623 18.0067 33.0587C19.3302 32.8469 20.5957 32.6362 21.8548 32.4943C21.9925 32.4786 22.1259 32.4631 22.2633 32.4468C24.2554 32.2273 26.5362 31.7944 28.0863 31.6606C28.2597 31.6565 28.4296 31.65 28.5962 31.6423C29.4453 31.6016 30.2329 31.5235 30.9852 31.4858C31.4093 31.4701 31.8883 31.3318 32.2547 31.1201C33.6225 30.206 33.7491 29.4197 34.1113 28.757C34.4139 28.0811 34.6412 27.457 34.8652 26.8296C35.3043 25.586 35.7005 24.364 36.1026 23.1499C36.1709 22.943 36.2443 22.7191 36.3122 22.5109C38.1566 16.8162 39.8987 11.1229 41.6454 5.43195C41.7306 5.15387 41.8136 4.88237 41.8948 4.61773C42.0112 4.23909 42.126 3.86413 42.2405 3.50667C42.2949 3.33663 42.3555 3.15243 42.4092 3.00152C42.437 2.9233 42.4614 2.85779 42.4832 2.80414C42.4865 2.777 42.5659 2.67101 42.4047 2.91347C42.3488 2.96834 42.2822 3.15001 41.8063 3.40872C41.4847 3.60814 40.675 3.67364 40.2122 3.39201C39.8122 3.17876 39.6317 2.91859 39.5298 2.75652C39.2834 2.28968 39.3588 2.30633 39.3354 2.26133C39.3292 2.21202 39.3394 2.28797 39.3418 2.34254C39.3498 2.48117 39.3523 2.65186 39.3522 2.83523C39.3519 3.19733 39.3428 3.57641 39.3311 3.97314C39.2832 5.5109 39.207 7.12242 39.1322 8.68771C39.1244 8.84745 39.1165 9.01025 39.1084 9.17616C38.4911 21.7887 37.8338 34.4221 37.2327 47.0425C37.231 47.0777 37.2294 47.1127 37.2278 47.1476C37.1942 47.8706 37.1718 48.5587 37.1542 49.2753C37.0672 52.1193 37.1823 55.2432 37.0187 57.7918C36.9737 58.0376 37.0306 58.2961 37.1707 58.5092C37.3112 58.7224 37.5235 58.8726 37.767 58.9281C38.0105 58.9837 38.2669 58.9405 38.486 58.8095C38.7047 58.6784 38.8682 58.4701 38.9343 58.2291C38.9343 58.2291 38.9343 58.2291 38.9343 58.2291C39.4408 55.0335 39.6629 52.3659 39.9523 49.4335C40.0156 48.7197 40.071 48.0337 40.1194 47.3117C40.1218 47.2769 40.1241 47.2419 40.1264 47.2068C40.9598 34.6018 41.7663 21.9783 42.5723 9.3708C42.5828 9.2049 42.5931 9.04206 42.6033 8.88223C42.702 7.31276 42.8133 5.71088 42.8931 4.11266C42.9128 3.69639 42.9299 3.29707 42.9373 2.86741C42.9404 2.64428 42.9427 2.4395 42.9317 2.16775C42.9249 2.04176 42.9225 1.91047 42.8826 1.65792C42.8439 1.52528 42.8967 1.42779 42.6049 0.884531C42.4877 0.697163 42.2906 0.419799 41.8728 0.197285C41.3892 -0.0954701 40.5539 -0.0298629 40.2061 0.182804C39.9157 0.33373 39.8152 0.439519 39.7038 0.545177C39.6035 0.645322 39.5306 0.742091 39.5034 0.778952C39.3587 0.979682 39.3076 1.09355 39.2626 1.18097C39.2138 1.28075 39.1867 1.34342 39.1571 1.41302C39.0958 1.55913 39.0583 1.65931 39.0161 1.77406C38.9371 1.98982 38.8663 2.2013 38.8038 2.39131C38.674 2.78781 38.5553 3.17123 38.437 3.5559C38.3546 3.82419 38.2716 4.09596 38.1869 4.37263C36.4434 10.0558 34.7071 15.7601 32.8886 21.396C32.8219 21.6013 32.75 21.8218 32.6834 22.0249C32.2833 23.2415 31.8903 24.4683 31.4826 25.6362C31.2773 26.2202 31.0677 26.7908 30.8457 27.2881C30.7368 27.5322 30.62 27.761 30.524 27.9108C30.4346 28.0652 30.3397 28.1062 30.4978 28.003C30.5762 27.9551 30.7282 27.9109 30.8203 27.9092C29.9776 27.9447 29.174 28.0037 28.4283 28.0387C28.2828 28.0455 28.1398 28.0509 28.0011 28.0542C25.5377 28.2661 23.8531 28.6551 21.838 28.8714C21.707 28.887 21.5801 28.9017 21.4491 28.9166C20.0769 29.0712 18.734 29.2948 17.4443 29.4996C16.8054 29.5998 16.1664 29.6976 15.6032 29.747C15.3254 29.7716 15.0592 29.7808 14.8937 29.7686C14.8154 29.7642 14.7622 29.7494 14.804 29.7605C14.8358 29.7739 15.0327 29.8196 15.2661 30.0983C15.3179 30.1622 15.3656 30.2353 15.4037 30.3099C14.7631 29.0753 14.7312 26.4495 14.6687 24.2572C14.6684 24.2423 14.6682 24.2275 14.6679 24.2125C14.5791 18.9299 14.5671 13.6364 14.4201 8.29071C14.4188 8.2514 14.4176 8.21249 14.4163 8.17397C14.3913 7.47371 14.3585 6.78343 14.273 6.00046C14.2492 5.80142 14.2249 5.59417 14.1661 5.31366C14.1273 5.15891 14.117 5.02817 13.9531 4.6668C13.9153 4.58882 13.8402 4.44517 13.7219 4.29527C13.5902 4.13857 13.3943 3.89017 12.9058 3.70178C12.4279 3.51431 11.8516 3.6112 11.5804 3.74166C11.3011 3.86425 11.1514 3.99568 11.0546 4.08081C10.6925 4.43472 10.6653 4.55653 10.5714 4.69931C10.4979 4.82723 10.4438 4.93542 10.3948 5.03625C10.2987 5.23544 10.2222 5.41047 10.1485 5.57946C10.0865 5.72199 10.0294 5.85667 9.97108 5.99509C8.46464 9.58067 7.25421 13.246 6.19855 16.94C6.1696 17.0417 6.14059 17.144 6.11154 17.2469C4.51555 22.9744 3.18118 28.7078 1.97646 34.5113C1.96725 34.5564 1.95818 34.6013 1.94925 34.646C1.6685 36.0501 1.46719 37.4646 1.29801 38.9022C1.15795 40.0608 1.06263 41.2473 0.911844 42.3301C0.909169 42.3487 0.906481 42.3674 0.903778 42.386C0.779815 43.2405 0.652615 44.0896 0.516885 44.9367C0.449155 45.3586 0.379249 45.7807 0.305614 46.1944C0.268625 46.4016 0.23138 46.6035 0.191619 46.802C0.172297 46.8983 0.151979 46.9952 0.132792 47.0785C0.123301 47.1198 0.113579 47.1591 0.10762 47.1809C0.104795 47.1915 0.102415 47.1984 0.106809 47.1848C0.109159 47.1778 0.114351 47.1615 0.12764 47.1286C0.175262 47.0613 0.073388 47.0948 0.432209 46.6754Z" fill="black"/>
<path d="M11.2128 38.607C10.8342 38.6449 10.4862 38.8316 10.2452 39.126C10.0043 39.4205 9.89022 39.7986 9.92808 40.1772C9.96594 40.5558 10.1526 40.9038 10.4471 41.1448C10.7416 41.3857 11.1197 41.4998 11.4983 41.4619C11.4983 41.4619 11.4983 41.4619 11.4983 41.4619C11.6029 41.4514 11.7119 41.4434 11.8235 41.4375C12.8186 41.389 13.9329 41.4831 15.0318 41.6167C15.0321 41.6167 15.0323 41.6167 15.0326 41.6168L15.0002 41.6124C16.015 41.7611 17.3302 41.7855 17.9154 41.9194L17.9318 41.9287C17.9319 41.9287 17.9319 41.9287 17.932 41.9288C18.0195 41.9662 18.1243 41.9712 18.2335 41.961C18.4028 41.9455 18.5817 41.8929 18.7368 41.8756C18.853 41.862 18.994 41.7899 19.1122 41.7081C19.2314 41.6244 19.3182 41.5378 19.3699 41.4344C19.4216 41.331 19.4388 41.2097 19.4342 41.0641C19.4287 40.9205 19.4019 40.7644 19.343 40.6633C19.343 40.6633 19.343 40.6633 19.343 40.6633C19.2634 40.5287 19.2078 40.3586 19.1446 40.2213C19.1035 40.1324 19.0589 40.0571 18.9982 40.012C18.9982 40.012 18.9982 40.0119 18.9981 40.0119L19.0146 40.0213C17.5583 39.2153 16.6048 38.9852 15.4158 38.7735L15.3834 38.7691C15.3831 38.7691 15.3829 38.7691 15.3826 38.769C14.1867 38.6266 12.9887 38.5118 11.672 38.5724C11.5216 38.5803 11.3689 38.5914 11.2128 38.607Z" fill="black"/>
<path d="M23.6043 40.0799C23.2888 40.1067 22.9969 40.2578 22.7928 40.4998C22.5887 40.7419 22.4891 41.0551 22.5159 41.3706C22.5427 41.6861 22.6938 41.978 22.9358 42.1821C23.1779 42.3862 23.4911 42.4858 23.8066 42.459C23.8066 42.459 23.8066 42.459 23.8066 42.459C23.9371 42.4479 24.0685 42.4372 24.2003 42.427C26.1148 42.2869 28.1041 42.1891 29.9247 42.2993C29.9251 42.2994 29.9256 42.2994 29.926 42.2994L29.9387 42.3003C30.6412 42.3392 31.2002 42.0297 31.6323 41.7C31.6329 41.6995 31.6335 41.699 31.6342 41.6985L31.712 41.655C31.7615 41.6112 31.7973 41.5407 31.8201 41.4531C31.8945 41.1766 31.8342 40.6409 31.5876 40.4473C31.5801 40.4428 31.5672 40.4384 31.5561 40.4351C31.5447 40.4318 31.5359 40.4299 31.5274 40.4297C31.5189 40.4295 31.5101 40.4311 31.4985 40.434C31.4872 40.4368 31.4742 40.4407 31.4665 40.4449C31.4665 40.4449 31.4665 40.4449 31.4665 40.4449C31.2069 40.5294 30.9233 40.1986 30.7899 40.0824C30.7475 40.0437 30.7157 40.0188 30.6958 40.018L30.7736 39.9745C30.7732 39.9746 30.7728 39.9746 30.7723 39.9747C30.4713 40.0092 30.2114 39.9286 30.091 39.9175L30.1037 39.9184C30.1032 39.9183 30.1027 39.9183 30.1021 39.9182C27.9886 39.7935 26.0289 39.9025 24.0155 40.0465C23.878 40.0571 23.7408 40.0683 23.6043 40.0799Z" fill="black"/>
<path d="M16.6814 46.3046C16.4154 46.275 16.1487 46.3523 15.9398 46.5195C15.7308 46.6866 15.5969 46.9299 15.5673 47.1958C15.5378 47.4617 15.6151 47.7285 15.7822 47.9374C15.9493 48.1463 16.1926 48.2803 16.4585 48.3098C16.5833 48.3237 16.7082 48.3377 16.8331 48.3517C17.4514 48.4213 18.071 48.4937 18.6989 48.5613C18.6989 48.5613 18.699 48.5613 18.699 48.5613L18.7554 48.5658C19.5467 48.5966 20.1706 48.6078 20.8047 48.5565C20.8047 48.5565 20.8047 48.5565 20.8047 48.5565L20.7735 48.559C21.7374 48.4955 22.7061 48.424 23.6974 48.3277C23.8214 48.3158 23.9438 48.3034 24.0686 48.2907C24.2779 48.2697 24.4824 48.187 24.638 48.0401C24.7936 47.8934 24.8876 47.6971 24.8995 47.4893C24.9114 47.2816 24.8406 47.0757 24.7027 46.9122C24.5649 46.7485 24.3713 46.643 24.1657 46.5982C24.1657 46.5982 24.1657 46.5982 24.1657 46.5982C24.0369 46.5709 23.9099 46.5456 23.7804 46.522C22.7479 46.3327 21.6859 46.2615 20.6285 46.3312L20.5973 46.3337C20.5973 46.3337 20.5972 46.3337 20.5972 46.3337C19.9695 46.3887 19.3336 46.5751 18.8579 46.5508L18.9143 46.5553C18.9142 46.5553 18.9142 46.5553 18.9141 46.5553C18.3014 46.4893 17.6809 46.4168 17.059 46.3468C16.9333 46.3327 16.8074 46.3186 16.6814 46.3046Z" fill="black"/>
</svg>
